# xmcd CD database file
#
# Track frame offsets:
#	150
#	26137
#	63675
#	91116
#	118722
#	156978
#	198807
#	216735
#	245619
#
# Disc length: 3720 seconds
#
# Revision: 0
# Processed by: cddbd v1.5.1PL0 Copyright (c) Steve Scherf et al.
# Submitted via: CDex 1.51
#
DISCID=840e8609
DTITLE=Steve Griggs Quintet - Jones For Elvin
DYEAR=1998
DGENRE=Jazz
TTITLE0=Jone for Elvin
TTITLE1=You're the Berries
TTITLE2=Healing
TTITLE3=Flora
TTITLE4=Sparks
TTITLE5=In a Sentimental Mood
TTITLE6=Milo's Mellifluous Milieu
TTITLE7=Claudia
TTITLE8=Jay's Maze
EXTD=YEAR: 1998
EXTT0=
EXTT1=
EXTT2=
EXTT3=
EXTT4=
EXTT5=
EXTT6=
EXTT7=
EXTT8=
PLAYORDER=
